<svg xmlns="http://www.w3.org/2000/svg" viewBox="0 0 194.41 40"><defs><style>.cls-1{fill:#45d2b0;}.cls-2,.cls-3{fill:#23216e;}.cls-3{font-size:28px;font-family:MontserratRoman-Regular, Montserrat;}.cls-4{letter-spacing:-0.01em;}.cls-5{letter-spacing:-0.01em;}</style></defs><g id="Layer_2" data-name="Layer 2"><g id="logo-44"><path class="cls-1" d="M20,0A20,20,0,0,0,0,20,20,20,0,0,0,20,0Z"/><path class="cls-1" d="M20,40A20,20,0,0,0,40,20,20,20,0,0,0,20,40Z"/><path class="cls-2" d="M20,0A20,20,0,0,1,40,20,20,20,0,0,1,20,0Z"/><path class="cls-2" d="M20,40A20,20,0,0,1,0,20,20,20,0,0,1,20,40Z"/><text class="cls-3" transform="translate(46.93 29.79)">N<tspan class="cls-4" x="22.76" y="0">e</tspan><tspan x="39.26" y="0">xtSo</tspan><tspan class="cls-5" x="100.35" y="0">c</tspan><tspan x="115.89" y="0">ial</tspan></text></g></g></svg>